<mxfile host="app.diagrams.net" modified="2023-05-29T18:07:05.729Z" agent="Mozilla/5.0 (Windows NT 10.0; Win64; x64) AppleWebKit/537.36 (KHTML, like Gecko) Chrome/113.0.0.0 Safari/537.36" etag="CnvsBKAgLya20eEQrq6l" version="21.3.5" type="device">
  <diagram name="Page-1" id="z0NkXbsKTlzJ4-4qUEFr">
    <mxGraphModel dx="1050" dy="541" grid="1" gridSize="10" guides="1" tooltips="1" connect="1" arrows="1" fold="1" page="1" pageScale="1" pageWidth="850" pageHeight="1100" background="none" math="0" shadow="0">
      <root>
        <mxCell id="0" />
        <mxCell id="1" parent="0" />
        <mxCell id="tjNFSNa4WCcFlEMhLhyr-2" value="" style="swimlane;startSize=0;" parent="1" vertex="1">
          <mxGeometry x="260" y="250" width="330" height="690" as="geometry" />
        </mxCell>
        <mxCell id="tjNFSNa4WCcFlEMhLhyr-3" value="&lt;p style=&quot;line-height: 120%;&quot;&gt;&lt;font style=&quot;font-size: 18px;&quot;&gt;Airline reservation system&lt;/font&gt;&lt;/p&gt;" style="text;html=1;strokeColor=none;fillColor=none;align=center;verticalAlign=middle;whiteSpace=wrap;rounded=0;" parent="tjNFSNa4WCcFlEMhLhyr-2" vertex="1">
          <mxGeometry x="60" y="10" width="230" height="30" as="geometry" />
        </mxCell>
        <mxCell id="tjNFSNa4WCcFlEMhLhyr-7" value="" style="ellipse;whiteSpace=wrap;html=1;fillStyle=hatch;" parent="tjNFSNa4WCcFlEMhLhyr-2" vertex="1">
          <mxGeometry x="70" y="90" width="150" height="80" as="geometry" />
        </mxCell>
        <mxCell id="tjNFSNa4WCcFlEMhLhyr-8" value="&lt;font style=&quot;font-size: 17px;&quot;&gt;Search&amp;nbsp; flights&lt;/font&gt;" style="text;html=1;strokeColor=none;fillColor=none;align=center;verticalAlign=middle;whiteSpace=wrap;rounded=0;" parent="tjNFSNa4WCcFlEMhLhyr-2" vertex="1">
          <mxGeometry x="90" y="115" width="120" height="30" as="geometry" />
        </mxCell>
        <mxCell id="tjNFSNa4WCcFlEMhLhyr-11" value="" style="ellipse;whiteSpace=wrap;html=1;fillStyle=hatch;" parent="tjNFSNa4WCcFlEMhLhyr-2" vertex="1">
          <mxGeometry x="70" y="225" width="150" height="80" as="geometry" />
        </mxCell>
        <mxCell id="tjNFSNa4WCcFlEMhLhyr-12" value="&lt;font style=&quot;font-size: 17px;&quot;&gt;Make reservations&lt;/font&gt;" style="text;html=1;strokeColor=none;fillColor=none;align=center;verticalAlign=middle;whiteSpace=wrap;rounded=0;" parent="tjNFSNa4WCcFlEMhLhyr-2" vertex="1">
          <mxGeometry x="85" y="250" width="120" height="30" as="geometry" />
        </mxCell>
        <mxCell id="tjNFSNa4WCcFlEMhLhyr-14" value="" style="ellipse;whiteSpace=wrap;html=1;fillStyle=hatch;" parent="tjNFSNa4WCcFlEMhLhyr-2" vertex="1">
          <mxGeometry x="70" y="350" width="150" height="80" as="geometry" />
        </mxCell>
        <mxCell id="tjNFSNa4WCcFlEMhLhyr-16" value="&lt;font style=&quot;font-size: 17px;&quot;&gt;Pay for flights&lt;/font&gt;" style="text;html=1;strokeColor=none;fillColor=none;align=center;verticalAlign=middle;whiteSpace=wrap;rounded=0;" parent="tjNFSNa4WCcFlEMhLhyr-2" vertex="1">
          <mxGeometry x="85" y="375" width="120" height="30" as="geometry" />
        </mxCell>
        <mxCell id="tjNFSNa4WCcFlEMhLhyr-17" value="" style="ellipse;whiteSpace=wrap;html=1;fillStyle=hatch;" parent="tjNFSNa4WCcFlEMhLhyr-2" vertex="1">
          <mxGeometry x="70" y="510" width="150" height="80" as="geometry" />
        </mxCell>
        <mxCell id="tjNFSNa4WCcFlEMhLhyr-18" value="&lt;font style=&quot;font-size: 17px;&quot;&gt;Select seats&lt;/font&gt;" style="text;html=1;strokeColor=none;fillColor=none;align=center;verticalAlign=middle;whiteSpace=wrap;rounded=0;" parent="tjNFSNa4WCcFlEMhLhyr-2" vertex="1">
          <mxGeometry x="85" y="535" width="120" height="30" as="geometry" />
        </mxCell>
        <mxCell id="tjNFSNa4WCcFlEMhLhyr-4" value="Actor" style="shape=umlActor;verticalLabelPosition=bottom;verticalAlign=top;html=1;" parent="1" vertex="1">
          <mxGeometry x="90" y="440" width="50" height="110" as="geometry" />
        </mxCell>
        <mxCell id="tjNFSNa4WCcFlEMhLhyr-6" value="Passenger" style="text;html=1;strokeColor=none;fillColor=none;align=center;verticalAlign=middle;whiteSpace=wrap;rounded=0;" parent="1" vertex="1">
          <mxGeometry x="85" y="570" width="60" height="30" as="geometry" />
        </mxCell>
        <mxCell id="tjNFSNa4WCcFlEMhLhyr-10" value="" style="endArrow=none;html=1;rounded=0;entryX=0.016;entryY=0.712;entryDx=0;entryDy=0;entryPerimeter=0;" parent="1" target="tjNFSNa4WCcFlEMhLhyr-7" edge="1">
          <mxGeometry width="50" height="50" relative="1" as="geometry">
            <mxPoint x="140" y="510" as="sourcePoint" />
            <mxPoint x="450" y="540" as="targetPoint" />
          </mxGeometry>
        </mxCell>
        <mxCell id="tjNFSNa4WCcFlEMhLhyr-13" value="" style="endArrow=none;html=1;rounded=0;entryX=0;entryY=0.5;entryDx=0;entryDy=0;" parent="1" target="tjNFSNa4WCcFlEMhLhyr-11" edge="1">
          <mxGeometry width="50" height="50" relative="1" as="geometry">
            <mxPoint x="150" y="530" as="sourcePoint" />
            <mxPoint x="450" y="540" as="targetPoint" />
          </mxGeometry>
        </mxCell>
        <mxCell id="tjNFSNa4WCcFlEMhLhyr-15" value="" style="endArrow=none;html=1;rounded=0;entryX=0;entryY=0.5;entryDx=0;entryDy=0;" parent="1" target="tjNFSNa4WCcFlEMhLhyr-14" edge="1">
          <mxGeometry width="50" height="50" relative="1" as="geometry">
            <mxPoint x="150" y="550" as="sourcePoint" />
            <mxPoint x="450" y="640" as="targetPoint" />
          </mxGeometry>
        </mxCell>
        <mxCell id="tjNFSNa4WCcFlEMhLhyr-19" value="" style="endArrow=none;html=1;rounded=0;entryX=0;entryY=0.5;entryDx=0;entryDy=0;" parent="1" target="tjNFSNa4WCcFlEMhLhyr-17" edge="1">
          <mxGeometry width="50" height="50" relative="1" as="geometry">
            <mxPoint x="150" y="570" as="sourcePoint" />
            <mxPoint x="330" y="670" as="targetPoint" />
          </mxGeometry>
        </mxCell>
      </root>
    </mxGraphModel>
  </diagram>
</mxfile>
